<svg width="66" height="86" viewBox="0 0 66 86" fill="none" xmlns="http://www.w3.org/2000/svg">
<path d="M32.2929 63.5125L33 64.2197L33.7071 63.5125L52.7251 44.4945C54.1231 43.2396 55.9483 42.5666 57.8269 42.614C59.7137 42.6617 61.51 43.4325 62.8446 44.7671C64.1792 46.1017 64.95 47.898 64.9977 49.7848C65.0451 51.6634 64.3721 53.4886 63.1171 54.8866L34.4589 83.5448L34.456 83.5477C34.2654 83.74 34.0385 83.8925 33.7887 83.9966C33.5388 84.1007 33.2707 84.1543 33 84.1543C32.7293 84.1543 32.4612 84.1007 32.2113 83.9966C31.9615 83.8925 31.7346 83.7399 31.544 83.5477L31.5411 83.5448L2.88286 54.8866C1.6279 53.4886 0.954881 51.6634 1.00235 49.7848C1.05003 47.898 1.82081 46.1017 3.15539 44.7671C4.48996 43.4325 6.28629 42.6617 8.17306 42.614C10.0517 42.5666 11.877 43.2396 13.2749 44.4945L32.2929 63.5125Z" fill="#41BA03" stroke="#004195" stroke-width="2"/>
<path d="M31.544 41.936L31.5411 41.9331L2.88285 13.2749C1.6279 11.877 0.954881 10.0517 1.00235 8.17306C1.05003 6.28629 1.82081 4.48996 3.15539 3.15539C4.48996 1.82082 6.28629 1.05003 8.17306 1.00235C10.0522 0.954868 11.878 1.62827 13.2761 2.8839L32.2952 21.7811L33 22.4814L33.7048 21.7811L52.724 2.88387C54.1221 1.62827 55.9478 0.954868 57.8269 1.00235C59.7137 1.05003 61.51 1.82082 62.8446 3.15539C64.1792 4.48996 64.95 6.28629 64.9977 8.17306C65.0451 10.0517 64.3721 11.8769 63.1171 13.2749L34.4589 41.9331L34.456 41.936C34.2654 42.1283 34.0386 42.2808 33.7887 42.3849C33.5388 42.489 33.2707 42.5426 33 42.5426C32.7293 42.5426 32.4612 42.489 32.2113 42.3849C31.9614 42.2808 31.7346 42.1283 31.544 41.936Z" fill="#41BA03" stroke="#004195" stroke-width="2"/>
</svg>
