<svg width="250" height="83" viewBox="0 0 250 83" fill="none" xmlns="http://www.w3.org/2000/svg">
<rect x="40.5" y="14.5" width="198" height="67" rx="9.5" stroke="#41BA03" stroke-width="3"/>
<rect x="20.5" y="23.5" width="51" height="51" fill="white"/>
<rect x="20.5" y="23.5" width="51" height="51" stroke="white" stroke-width="5"/>
<rect x="130" width="89" height="26" fill="white"/>
<path d="M153.165 11.8693H148.903C148.847 11.4318 148.73 11.0369 148.554 10.6847C148.378 10.3324 148.145 10.0312 147.855 9.78125C147.565 9.53125 147.222 9.34091 146.824 9.21023C146.432 9.07386 145.997 9.00568 145.52 9.00568C144.673 9.00568 143.943 9.21307 143.33 9.62784C142.722 10.0426 142.253 10.642 141.923 11.4261C141.599 12.2102 141.438 13.1591 141.438 14.2727C141.438 15.4318 141.602 16.4034 141.932 17.1875C142.267 17.9659 142.736 18.554 143.338 18.9517C143.946 19.3437 144.665 19.5398 145.494 19.5398C145.96 19.5398 146.384 19.4801 146.764 19.3608C147.151 19.2415 147.489 19.0682 147.778 18.8409C148.074 18.608 148.315 18.3267 148.503 17.9972C148.696 17.6619 148.83 17.2841 148.903 16.8636L153.165 16.8892C153.091 17.6619 152.866 18.4233 152.491 19.1733C152.122 19.9233 151.614 20.608 150.966 21.2273C150.318 21.8409 149.528 22.3295 148.597 22.6932C147.67 23.0568 146.608 23.2386 145.409 23.2386C143.83 23.2386 142.415 22.892 141.165 22.1989C139.92 21.5 138.938 20.483 138.216 19.1477C137.494 17.8125 137.134 16.1875 137.134 14.2727C137.134 12.3523 137.5 10.7244 138.233 9.3892C138.966 8.05398 139.957 7.03977 141.207 6.34659C142.457 5.65341 143.858 5.30682 145.409 5.30682C146.466 5.30682 147.443 5.45455 148.341 5.75C149.239 6.03977 150.028 6.46591 150.71 7.02841C151.392 7.58523 151.946 8.26989 152.372 9.08239C152.798 9.89489 153.062 10.8239 153.165 11.8693ZM155.579 23V5.54545H159.798V19.5739H167.059V23H155.579ZM173.253 23H168.719L174.608 5.54545H180.224L186.114 23H181.58L177.48 9.94318H177.344L173.253 23ZM172.648 16.1307H182.125V19.3352H172.648V16.1307ZM192.212 5.54545V23H187.993V5.54545H192.212ZM194.86 5.54545H200.085L204.516 16.3523H204.721L209.153 5.54545H214.377V23H210.269V12.2784H210.124L205.931 22.8892H203.306L199.113 12.2188H198.968V23H194.86V5.54545Z" fill="white"/>
<path d="M153.165 11.8693H148.903C148.847 11.4318 148.73 11.0369 148.554 10.6847C148.378 10.3324 148.145 10.0312 147.855 9.78125C147.565 9.53125 147.222 9.34091 146.824 9.21023C146.432 9.07386 145.997 9.00568 145.52 9.00568C144.673 9.00568 143.943 9.21307 143.33 9.62784C142.722 10.0426 142.253 10.642 141.923 11.4261C141.599 12.2102 141.438 13.1591 141.438 14.2727C141.438 15.4318 141.602 16.4034 141.932 17.1875C142.267 17.9659 142.736 18.554 143.338 18.9517C143.946 19.3437 144.665 19.5398 145.494 19.5398C145.96 19.5398 146.384 19.4801 146.764 19.3608C147.151 19.2415 147.489 19.0682 147.778 18.8409C148.074 18.608 148.315 18.3267 148.503 17.9972C148.696 17.6619 148.83 17.2841 148.903 16.8636L153.165 16.8892C153.091 17.6619 152.866 18.4233 152.491 19.1733C152.122 19.9233 151.614 20.608 150.966 21.2273C150.318 21.8409 149.528 22.3295 148.597 22.6932C147.67 23.0568 146.608 23.2386 145.409 23.2386C143.83 23.2386 142.415 22.892 141.165 22.1989C139.92 21.5 138.938 20.483 138.216 19.1477C137.494 17.8125 137.134 16.1875 137.134 14.2727C137.134 12.3523 137.5 10.7244 138.233 9.3892C138.966 8.05398 139.957 7.03977 141.207 6.34659C142.457 5.65341 143.858 5.30682 145.409 5.30682C146.466 5.30682 147.443 5.45455 148.341 5.75C149.239 6.03977 150.028 6.46591 150.71 7.02841C151.392 7.58523 151.946 8.26989 152.372 9.08239C152.798 9.89489 153.062 10.8239 153.165 11.8693ZM155.579 23V5.54545H159.798V19.5739H167.059V23H155.579ZM173.253 23H168.719L174.608 5.54545H180.224L186.114 23H181.58L177.48 9.94318H177.344L173.253 23ZM172.648 16.1307H182.125V19.3352H172.648V16.1307ZM192.212 5.54545V23H187.993V5.54545H192.212ZM194.86 5.54545H200.085L204.516 16.3523H204.721L209.153 5.54545H214.377V23H210.269V12.2784H210.124L205.931 22.8892H203.306L199.113 12.2188H198.968V23H194.86V5.54545Z" fill="#41BA03"/>
<path d="M109.005 61.3636V37.7273H110.519V61.3636H109.005ZM112.652 45.7599C112.59 45.0829 112.317 44.5566 111.83 44.1811C111.35 43.7995 110.664 43.6087 109.771 43.6087C109.18 43.6087 108.688 43.6856 108.294 43.8395C107.9 43.9934 107.605 44.2057 107.408 44.4766C107.211 44.7412 107.109 45.0459 107.103 45.3906C107.091 45.6738 107.146 45.9231 107.269 46.1385C107.398 46.3539 107.583 46.5447 107.823 46.7109C108.069 46.871 108.365 47.0125 108.71 47.1357C109.054 47.2588 109.442 47.3665 109.873 47.4588L111.498 47.8281C112.433 48.0312 113.258 48.3021 113.972 48.6406C114.692 48.9792 115.296 49.3823 115.782 49.8501C116.274 50.3179 116.647 50.8565 116.899 51.4659C117.152 52.0753 117.281 52.7585 117.287 53.5156C117.281 54.7098 116.979 55.7346 116.382 56.5902C115.785 57.4458 114.926 58.1013 113.806 58.5568C112.692 59.0123 111.347 59.2401 109.771 59.2401C108.189 59.2401 106.811 59.0031 105.635 58.5291C104.459 58.0552 103.545 57.335 102.893 56.3686C102.24 55.4022 101.905 54.1804 101.886 52.7031H106.263C106.3 53.3125 106.463 53.8203 106.752 54.2266C107.041 54.6328 107.438 54.9406 107.943 55.1499C108.454 55.3591 109.045 55.4638 109.716 55.4638C110.331 55.4638 110.855 55.3807 111.286 55.2145C111.723 55.0483 112.058 54.8175 112.292 54.522C112.526 54.2266 112.646 53.888 112.652 53.5064C112.646 53.1494 112.535 52.8447 112.32 52.5923C112.104 52.3338 111.772 52.1122 111.322 51.9276C110.879 51.7367 110.313 51.5613 109.624 51.4013L107.648 50.9396C106.01 50.5642 104.721 49.9579 103.779 49.1207C102.837 48.2775 102.37 47.1387 102.376 45.7045C102.37 44.535 102.683 43.5102 103.317 42.63C103.951 41.7498 104.829 41.0634 105.949 40.571C107.069 40.0786 108.346 39.8324 109.781 39.8324C111.246 39.8324 112.517 40.0817 113.594 40.5803C114.677 41.0727 115.517 41.7652 116.114 42.6577C116.711 43.5502 117.016 44.5843 117.028 45.7599H112.652ZM126.797 59.2585C125.418 59.2585 124.193 59.0092 123.122 58.5107C122.051 58.0121 121.205 57.3258 120.583 56.4517C119.968 55.5777 119.647 54.5743 119.623 53.4418H124.055C124.092 54.1373 124.375 54.6974 124.904 55.1222C125.433 55.5407 126.064 55.75 126.797 55.75C127.369 55.75 127.877 55.6238 128.32 55.3714C128.763 55.1191 129.111 54.7652 129.364 54.3097C129.616 53.848 129.739 53.3187 129.733 52.7216C129.739 52.1122 129.613 51.5798 129.354 51.1243C129.102 50.6688 128.751 50.3149 128.302 50.0625C127.859 49.804 127.348 49.6747 126.769 49.6747C126.221 49.6686 125.701 49.7886 125.209 50.0348C124.723 50.281 124.353 50.6165 124.101 51.0412L120.066 50.2841L120.888 40.0909H133.02V43.7749H124.646L124.212 48.2344H124.322C124.636 47.7112 125.141 47.2803 125.837 46.9418C126.538 46.5971 127.335 46.4247 128.228 46.4247C129.361 46.4247 130.37 46.6894 131.256 47.2188C132.149 47.742 132.851 48.4683 133.362 49.3977C133.879 50.3272 134.137 51.392 134.137 52.5923C134.137 53.8911 133.829 55.0421 133.214 56.0455C132.604 57.0488 131.749 57.8366 130.647 58.4091C129.551 58.9754 128.268 59.2585 126.797 59.2585ZM144.466 59.4616C142.817 59.4616 141.395 59.0708 140.201 58.2891C139.007 57.5012 138.086 56.3717 137.44 54.9006C136.794 53.4233 136.474 51.6475 136.48 49.5732C136.486 47.4988 136.809 45.7384 137.449 44.2919C138.096 42.8393 139.013 41.7344 140.201 40.9773C141.395 40.214 142.817 39.8324 144.466 39.8324C146.116 39.8324 147.538 40.214 148.732 40.9773C149.932 41.7344 150.856 42.8393 151.502 44.2919C152.148 45.7446 152.468 47.505 152.462 49.5732C152.462 51.6536 152.139 53.4325 151.493 54.9098C150.846 56.3871 149.926 57.5166 148.732 58.2983C147.544 59.0739 146.122 59.4616 144.466 59.4616ZM144.466 55.7223C145.451 55.7223 146.248 55.2206 146.858 54.2173C147.467 53.2079 147.769 51.6598 147.763 49.5732C147.763 48.2067 147.624 47.0803 147.347 46.1939C147.07 45.3014 146.685 44.6366 146.193 44.1996C145.701 43.7625 145.125 43.544 144.466 43.544C143.488 43.544 142.697 44.0395 142.094 45.0305C141.49 46.0154 141.186 47.5296 141.18 49.5732C141.173 50.9581 141.306 52.1061 141.577 53.017C141.854 53.928 142.241 54.6082 142.74 55.0575C143.238 55.5007 143.814 55.7223 144.466 55.7223ZM178.55 49.5455C178.55 51.6259 178.15 53.3894 177.35 54.8359C176.549 56.2824 175.466 57.3812 174.1 58.1321C172.739 58.883 171.213 59.2585 169.52 59.2585C167.821 59.2585 166.292 58.88 164.931 58.1229C163.571 57.3658 162.491 56.267 161.691 54.8267C160.896 53.3802 160.499 51.6198 160.499 49.5455C160.499 47.465 160.896 45.7015 161.691 44.255C162.491 42.8085 163.571 41.7098 164.931 40.9588C166.292 40.2079 167.821 39.8324 169.52 39.8324C171.213 39.8324 172.739 40.2079 174.1 40.9588C175.466 41.7098 176.549 42.8085 177.35 44.255C178.15 45.7015 178.55 47.465 178.55 49.5455ZM173.878 49.5455C173.878 48.3144 173.703 47.2741 173.352 46.4247C173.007 45.5753 172.508 44.9321 171.856 44.495C171.21 44.058 170.431 43.8395 169.52 43.8395C168.615 43.8395 167.837 44.058 167.184 44.495C166.532 44.9321 166.03 45.5753 165.679 46.4247C165.334 47.2741 165.162 48.3144 165.162 49.5455C165.162 50.7765 165.334 51.8168 165.679 52.6662C166.03 53.5156 166.532 54.1589 167.184 54.5959C167.837 55.0329 168.615 55.2514 169.52 55.2514C170.431 55.2514 171.21 55.0329 171.856 54.5959C172.508 54.1589 173.007 53.5156 173.352 52.6662C173.703 51.8168 173.878 50.7765 173.878 49.5455ZM181.218 59V40.0909H194.126V43.8026H185.789V47.6804H193.304V51.4013H185.789V59H181.218ZM196.427 59V40.0909H209.335V43.8026H200.998V47.6804H208.513V51.4013H200.998V59H196.427Z" fill="#004195"/>
<path d="M72.4629 20.3602L21.5856 32.2592L19.2219 36.0641L15.4181 33.7016L1.5425 36.9468C0.690743 37.146 0.161413 37.9977 0.360585 38.8493L9.01431 75.8507C9.21351 76.7024 10.0653 77.2296 10.9171 77.0304L24.7927 73.7852L27.1549 69.9836L30.9602 72.3428L81.8374 60.4438C82.6891 60.2447 83.2165 59.3948 83.0173 58.5432L74.3636 21.5418C74.1645 20.6902 73.3143 20.1611 72.4629 20.3602ZM79.5752 57.7238L31.5158 68.9637L28.8263 67.2926L26.1345 65.6206L24.4655 68.3125L22.796 71.003L11.739 73.589L3.80599 39.6695L14.8631 37.0835L17.5524 38.7538L20.2417 40.4243L21.9133 37.7341L23.5829 35.0443L71.6422 23.8044L79.5752 57.7238Z" fill="#004195"/>
<path d="M41.8892 35.6409C38.4835 36.4374 36.3676 39.8452 37.164 43.2503C37.9605 46.6562 41.368 48.7714 44.7738 47.9748C48.1791 47.1784 50.2936 43.7718 49.4971 40.3659C48.7007 36.9608 45.2944 34.8445 41.8892 35.6409ZM44.0527 44.8913C42.3522 45.289 40.6442 44.2291 40.2467 42.5293C39.849 40.829 40.9099 39.1222 42.6104 38.7245C44.3109 38.3268 46.0174 39.3864 46.4151 41.0867C46.8126 42.7865 45.7531 44.4936 44.0527 44.8913Z" fill="#004195"/>
<path d="M57.1078 45.0902C53.7012 45.8869 51.585 49.2933 52.3814 52.6984C53.1777 56.1034 56.586 58.2222 59.9927 57.4254C63.3979 56.629 65.5131 53.2186 64.7167 49.8134C63.9204 46.4083 60.5128 44.2938 57.1078 45.0902ZM59.2712 54.3404C57.5694 54.7384 55.8647 53.6799 55.4664 51.9769C55.069 50.2777 56.1275 48.5731 57.8293 48.175C59.5298 47.7773 61.2344 48.8359 61.6317 50.5349C62.03 52.238 60.9715 53.9428 59.2712 54.3404Z" fill="#004195"/>
<path d="M58.8484 31.6747C58.4233 31.7741 58.0767 32.0368 57.8627 32.3813L41.3275 59.014C41.1144 59.3584 41.0306 59.7829 41.13 60.208C41.3295 61.061 42.182 61.5909 43.0336 61.3918C43.4581 61.2925 43.8034 61.028 44.019 60.6846L60.5535 34.0513C60.7689 33.7072 60.8504 33.2817 60.7508 32.8559C60.5517 32.0049 59.6986 31.4759 58.8484 31.6747Z" fill="#004195"/>
<path d="M20.6642 42.231C19.8154 42.4296 19.2853 43.2813 19.4845 44.1331C19.6837 44.9848 20.5367 45.5131 21.3854 45.3146C22.2392 45.1149 22.7665 44.2638 22.5673 43.4121C22.3681 42.5603 21.518 42.0314 20.6642 42.231Z" fill="#004195"/>
<path d="M22.1065 48.398C21.2576 48.5965 20.7275 49.4482 20.9267 50.3C21.1258 51.151 21.9789 51.68 22.8277 51.4815C23.6814 51.2818 24.2086 50.43 24.0096 49.579C23.8104 48.7272 22.9603 48.1983 22.1065 48.398Z" fill="#004195"/>
<path d="M23.5488 54.565C22.6999 54.7635 22.1698 55.6151 22.3694 56.4683C22.5679 57.3171 23.4212 57.8467 24.2699 57.6482C25.1237 57.4485 25.6507 56.5961 25.4522 55.7473C25.2527 54.8941 24.4026 54.3653 23.5488 54.565Z" fill="#004195"/>
<path d="M24.9914 60.7332C24.1426 60.9317 23.6122 61.7823 23.8113 62.6336C24.0105 63.4854 24.8632 64.0124 25.7119 63.8139C26.5657 63.6142 27.0933 62.7642 26.8942 61.9126C26.695 61.0612 25.8452 60.5335 24.9914 60.7332Z" fill="#004195"/>
</svg>
