<svg width="115" height="242" viewBox="0 0 115 242" fill="none" xmlns="http://www.w3.org/2000/svg">
<g filter="url(#filter0_d_25_5)">
<path d="M111 188H107V202.254H111V188Z" fill="#41BA03"/>
<path d="M111 210.746H107V225H111V210.746Z" fill="#41BA03"/>
<path d="M111 143H107V157.254H111V143Z" fill="#41BA03"/>
<path d="M111 165.746H107V180H111V165.746Z" fill="#41BA03"/>
<path d="M111 98H107V112.254H111V98Z" fill="#41BA03"/>
<path d="M111 120.746H107V135H111V120.746Z" fill="#41BA03"/>
<path d="M111 53H107V67.2545H111V53Z" fill="#41BA03"/>
<path d="M111 75.7456H107V90.0001H111V75.7456Z" fill="#41BA03"/>
<path d="M111 8H107V22.2545H111V8Z" fill="#41BA03"/>
<path d="M111 30.7456H107V45.0001H111V30.7456Z" fill="#41BA03"/>
</g>
<g filter="url(#filter1_d_25_5)">
<rect x="4" width="103" height="234" fill="#41BA03"/>
</g>
<g filter="url(#filter2_d_25_5)">
<path d="M50 34.1562L90 34.1562L90 36.7188L50 36.7187L50 34.1562ZM77.2031 41.5469C78.5677 41.401 79.6302 40.7865 80.3906 39.7031C81.151 38.6302 81.5313 37.2344 81.5313 35.5156C81.5313 34.3073 81.349 33.2708 80.9844 32.4062C80.6198 31.5417 80.125 30.8802 79.5 30.4219C78.875 29.9635 78.1615 29.7292 77.3594 29.7187C76.6927 29.7187 76.1146 29.8698 75.625 30.1719C75.1354 30.4844 74.7187 30.9062 74.375 31.4375C74.0417 31.9687 73.7604 32.5573 73.5313 33.2031C73.3021 33.849 73.1094 34.5 72.9531 35.1562L72.2031 38.1562C71.9219 39.3646 71.5417 40.526 71.0625 41.6406C70.5833 42.7656 69.9792 43.7708 69.25 44.6562C68.5208 45.5521 67.6406 46.2604 66.6094 46.7812C65.5781 47.3021 64.3698 47.5625 62.9844 47.5625C61.1094 47.5625 59.4583 47.0833 58.0312 46.125C56.6146 45.1667 55.5052 43.7812 54.7031 41.9687C53.9115 40.1667 53.5156 37.9844 53.5156 35.4219C53.5156 32.9323 53.901 30.7708 54.6719 28.9375C55.4427 27.1146 56.5677 25.6875 58.0469 24.6562C59.526 23.6354 61.3281 23.0833 63.4531 23L63.4531 28.7031C62.3385 28.7865 61.4115 29.1302 60.6719 29.7344C59.9323 30.3385 59.3802 31.125 59.0156 32.0937C58.651 33.0729 58.4687 34.1667 58.4687 35.375C58.4687 36.6354 58.6562 37.7396 59.0312 38.6875C59.4167 39.6458 59.9479 40.3958 60.625 40.9375C61.3125 41.4792 62.1146 41.7552 63.0312 41.7656C63.8646 41.7552 64.5521 41.5104 65.0937 41.0312C65.6458 40.5521 66.1042 39.8802 66.4687 39.0156C66.8437 38.1615 67.1771 37.1615 67.4687 36.0156L68.4062 32.375C69.0833 29.7396 70.1094 27.6562 71.4844 26.125C72.8698 24.6042 74.7083 23.8437 77 23.8437C78.8854 23.8437 80.5365 24.3542 81.9531 25.375C83.3698 26.4062 84.4688 27.8073 85.25 29.5781C86.0417 31.349 86.4375 33.3542 86.4375 35.5938C86.4375 37.8646 86.0417 39.8542 85.25 41.5625C84.4687 43.2813 83.3802 44.6302 81.9844 45.6094C80.599 46.5885 79.0052 47.0938 77.2031 47.125L77.2031 41.5469ZM53.5625 63.543C53.5625 61.4596 53.9531 59.5951 54.7344 57.9492C55.526 56.3034 56.6094 54.9961 57.9844 54.0273C59.3594 53.069 60.9323 52.5586 62.7031 52.4961L62.7031 58.1211C61.3906 58.2253 60.3177 58.793 59.4844 59.8242C58.6615 60.8555 58.25 62.0951 58.25 63.543C58.25 64.6784 58.5104 65.6888 59.0312 66.5742C59.5521 67.4596 60.276 68.1576 61.2031 68.668C62.1302 69.1784 63.1875 69.4284 64.375 69.418C65.5833 69.4284 66.6562 69.1732 67.5937 68.6523C68.5312 68.1315 69.2656 67.418 69.7969 66.5117C70.3385 65.6055 70.6094 64.5638 70.6094 63.3867C70.6198 62.4284 70.4427 61.4857 70.0781 60.5586C69.7135 59.6315 69.2344 58.8971 68.6406 58.3555L69.5 53.1211L86 54.793L86 73.3555L81.1562 73.3555L81.1562 59.5898L72.6719 58.668L72.6719 58.8555C73.3698 59.4492 73.9479 60.2878 74.4062 61.3711C74.875 62.4544 75.1094 63.6419 75.1094 64.9336C75.1094 66.8711 74.651 68.6003 73.7344 70.1211C72.8281 71.6419 71.5781 72.8398 69.9844 73.7148C68.3906 74.5898 66.5677 75.0273 64.5156 75.0273C62.401 75.0273 60.5156 74.5378 58.8594 73.5586C57.2135 72.5898 55.9167 71.2409 54.9687 69.5117C54.0312 67.793 53.5625 65.8034 53.5625 63.543ZM53.3906 92.0898C53.3906 89.5169 54.0417 87.3086 55.3437 85.4648C56.6562 83.6315 58.5469 82.2201 61.0156 81.2305C63.4948 80.2513 66.4792 79.7617 69.9687 79.7617C73.4583 79.7721 76.4271 80.2669 78.875 81.2461C81.3333 82.2357 83.2083 83.6471 84.5 85.4805C85.7917 87.3242 86.4375 89.5273 86.4375 92.0898C86.4375 94.6523 85.7917 96.8555 84.5 98.6992C83.2083 100.543 81.3333 101.954 78.875 102.934C76.4167 103.923 73.4479 104.418 69.9687 104.418C66.4687 104.418 63.4792 103.923 61 102.934C58.5312 101.954 56.6458 100.543 55.3437 98.6992C54.0417 96.8659 53.3906 94.6628 53.3906 92.0898ZM58.2812 92.0898C58.2812 94.0898 59.2656 95.668 61.2344 96.8242C63.2135 97.9909 66.125 98.5742 69.9687 98.5742C72.5104 98.5742 74.6458 98.3086 76.375 97.7773C78.1042 97.2461 79.4062 96.4961 80.2812 95.5273C81.1667 94.5586 81.6094 93.4128 81.6094 92.0898C81.6094 90.1003 80.6198 88.5273 78.6406 87.3711C76.6719 86.2148 73.7812 85.6315 69.9687 85.6211C67.4167 85.6107 65.2708 85.8659 63.5312 86.3867C61.7917 86.918 60.4792 87.668 59.5937 88.6367C58.7187 89.6055 58.2812 90.7565 58.2812 92.0898ZM70 149.43C66.5521 149.43 63.599 148.784 61.1406 147.492C58.6927 146.211 56.8177 144.461 55.5156 142.242C54.2135 140.034 53.5625 137.529 53.5625 134.727C53.5625 131.924 54.2135 129.414 55.5156 127.195C56.8281 124.987 58.7083 123.237 61.1562 121.945C63.6146 120.664 66.5625 120.023 70 120.023C73.4479 120.023 76.3958 120.664 78.8437 121.945C81.3021 123.237 83.1823 124.987 84.4844 127.195C85.7865 129.414 86.4375 131.924 86.4375 134.727C86.4375 137.529 85.7865 140.034 84.4844 142.242C83.1823 144.461 81.3021 146.211 78.8437 147.492C76.3958 148.784 73.4479 149.43 70 149.43ZM70 143.602C72.4271 143.602 74.474 143.221 76.1406 142.461C77.8177 141.711 79.0833 140.669 79.9375 139.336C80.8021 138.003 81.2344 136.466 81.2344 134.727C81.2344 132.987 80.8021 131.451 79.9375 130.117C79.0833 128.784 77.8177 127.737 76.1406 126.977C74.474 126.227 72.4271 125.852 70 125.852C67.5729 125.852 65.5208 126.227 63.8437 126.977C62.1771 127.737 60.9115 128.784 60.0469 130.117C59.1927 131.451 58.7656 132.987 58.7656 134.727C58.7656 136.466 59.1927 138.003 60.0469 139.336C60.9115 140.669 62.1771 141.711 63.8437 142.461C65.5208 143.221 67.5729 143.602 70 143.602ZM54 154.91L86 154.91L86 175.41L81.1406 175.41L81.1406 160.707L72.4531 160.707L72.4531 174.004L67.5937 174.004L67.5937 160.707L54 160.707L54 154.91ZM54 180.691L86 180.691L86 201.191L81.1406 201.191L81.1406 186.488L72.4531 186.488L72.4531 199.785L67.5937 199.785L67.5937 186.488L54 186.488L54 180.691Z" fill="white"/>
</g>
<g filter="url(#filter3_d_25_5)">
<path d="M16 39.2727L16 31.0227L39.2727 31.0227L39.2727 39.3409C39.2727 41.6818 38.8068 43.697 37.875 45.3864C36.9508 47.0758 35.6212 48.375 33.8864 49.2841C32.1515 50.2008 30.0758 50.6591 27.6591 50.6591C25.2348 50.6591 23.1515 50.2008 21.4091 49.2841C19.6667 48.375 18.3295 47.0682 17.3977 45.3636C16.4659 43.6667 16 41.6364 16 39.2727ZM20.2159 35.9432L20.2159 39.0682C20.2159 40.5227 20.4735 41.7462 20.9886 42.7386C21.5114 43.7386 22.3182 44.4886 23.4091 44.9886C24.5076 45.4962 25.9242 45.75 27.6591 45.75C29.3788 45.75 30.7841 45.4962 31.875 44.9886C32.9659 44.4886 33.7689 43.7424 34.2841 42.75C34.7992 41.7576 35.0568 40.5341 35.0568 39.0795L35.0568 35.9432L20.2159 35.9432ZM39.2727 59.2244L16 59.2244L16 54.304L39.2727 54.304L39.2727 59.2244ZM32.5795 75.8977C33.4962 75.8068 34.2083 75.4167 34.7159 74.7273C35.2235 74.0379 35.4773 73.1023 35.4773 71.9205C35.4773 71.1174 35.3636 70.4394 35.1364 69.8864C34.9167 69.3333 34.6098 68.9091 34.2159 68.6136C33.822 68.3258 33.375 68.1818 32.875 68.1818C32.4583 68.1667 32.0947 68.2538 31.7841 68.4432C31.4735 68.6402 31.2045 68.9091 30.9773 69.25C30.7576 69.5909 30.5644 69.9848 30.3977 70.4318C30.2386 70.8788 30.1023 71.3561 29.9886 71.8636L29.4886 73.9545C29.2614 74.9697 28.9583 75.9015 28.5795 76.75C28.2008 77.5985 27.7348 78.3333 27.1818 78.9545C26.6288 79.5758 25.9773 80.0568 25.2273 80.3977C24.4773 80.7462 23.6174 80.9242 22.6477 80.9318C21.2235 80.9242 19.9886 80.5606 18.9432 79.8409C17.9053 79.1288 17.0985 78.0985 16.5227 76.75C15.9545 75.4091 15.6705 73.7917 15.6705 71.8977C15.6705 70.0189 15.9583 68.3826 16.5341 66.9886C17.1098 65.6023 17.9621 64.5189 19.0909 63.7386C20.2273 62.9659 21.6326 62.5606 23.3068 62.5227L23.3068 67.2841C22.5265 67.3371 21.875 67.5606 21.3523 67.9545C20.8371 68.3561 20.447 68.8902 20.1818 69.5568C19.9242 70.2311 19.7955 70.9924 19.7955 71.8409C19.7955 72.6742 19.9167 73.3977 20.1591 74.0114C20.4015 74.6326 20.7386 75.1136 21.1705 75.4545C21.6023 75.7955 22.0985 75.9659 22.6591 75.9659C23.1818 75.9659 23.6212 75.8106 23.9773 75.5C24.3333 75.197 24.6364 74.75 24.8864 74.1591C25.1364 73.5758 25.3636 72.8598 25.5682 72.0114L26.2045 69.4773C26.6818 67.5152 27.428 65.9659 28.4432 64.8295C29.4583 63.6932 30.8258 63.1288 32.5455 63.1364C33.9545 63.1288 35.1856 63.5038 36.2386 64.2614C37.2917 65.0265 38.1136 66.0758 38.7045 67.4091C39.2955 68.7424 39.5909 70.2576 39.5909 71.9545C39.5909 73.6818 39.2955 75.1894 38.7045 76.4773C38.1136 77.7727 37.2917 78.7803 36.2386 79.5C35.1856 80.2197 33.9659 80.5909 32.5795 80.6136L32.5795 75.8977ZM31.125 104.776L31.125 99.7983C31.7689 99.7074 32.3409 99.5218 32.8409 99.2415C33.3485 98.9612 33.7803 98.6013 34.1364 98.1619C34.4924 97.7225 34.7651 97.215 34.9545 96.6392C35.1439 96.071 35.2386 95.4536 35.2386 94.7869C35.2386 93.5824 34.9394 92.5331 34.3409 91.6392C33.75 90.7453 32.8864 90.0521 31.75 89.5597C30.6212 89.0672 29.25 88.821 27.6364 88.821C25.9773 88.821 24.5833 89.0672 23.4545 89.5597C22.3258 90.0597 21.4735 90.7566 20.8977 91.6506C20.322 92.5445 20.0341 93.5786 20.0341 94.7528C20.0341 95.4119 20.1212 96.0218 20.2955 96.5824C20.4697 97.1506 20.7235 97.6544 21.0568 98.0937C21.3977 98.5331 21.8106 98.8968 22.2955 99.1847C22.7803 99.4801 23.3333 99.6847 23.9545 99.7983L23.9318 104.776C22.8636 104.647 21.8333 104.325 20.8409 103.81C19.8561 103.302 18.9735 102.616 18.1932 101.753C17.4205 100.897 16.8068 99.8741 16.3523 98.6847C15.9053 97.5028 15.6818 96.1657 15.6818 94.6733C15.6818 92.5975 16.1515 90.7415 17.0909 89.1051C18.0303 87.4763 19.3901 86.1884 21.1705 85.2415C22.9508 84.3021 25.1061 83.8324 27.6364 83.8324C30.1742 83.8324 32.3333 84.3097 34.1136 85.2642C35.8939 86.2187 37.25 87.5142 38.1818 89.1506C39.1212 90.7869 39.5909 92.6278 39.5909 94.6733C39.5909 96.0218 39.4015 97.2718 39.0227 98.4233C38.6439 99.5824 38.0909 100.609 37.3636 101.503C36.6439 102.397 35.7614 103.124 34.7159 103.685C33.6705 104.253 32.4735 104.616 31.125 104.776ZM27.6364 129.69C25.0985 129.69 22.9394 129.209 21.1591 128.247C19.3788 127.293 18.0189 125.99 17.0795 124.338C16.1477 122.694 15.6818 120.846 15.6818 118.793C15.6818 116.724 16.1515 114.868 17.0909 113.224C18.0303 111.58 19.3901 110.281 21.1705 109.327C22.9508 108.372 25.1061 107.895 27.6364 107.895C30.1742 107.895 32.3333 108.372 34.1136 109.327C35.8939 110.281 37.25 111.58 38.1818 113.224C39.1212 114.868 39.5909 116.724 39.5909 118.793C39.5909 120.846 39.1212 122.694 38.1818 124.338C37.25 125.99 35.8939 127.293 34.1136 128.247C32.3333 129.209 30.1742 129.69 27.6364 129.69ZM27.6364 124.702C29.2803 124.702 30.6667 124.455 31.7955 123.963C32.9242 123.478 33.7803 122.793 34.3636 121.906C34.947 121.02 35.2386 119.982 35.2386 118.793C35.2386 117.603 34.947 116.565 34.3636 115.679C33.7803 114.793 32.9242 114.103 31.7955 113.611C30.6667 113.126 29.2803 112.884 27.6364 112.884C25.9924 112.884 24.6061 113.126 23.4773 113.611C22.3485 114.103 21.4924 114.793 20.9091 115.679C20.3258 116.565 20.0341 117.603 20.0341 118.793C20.0341 119.982 20.3258 121.02 20.9091 121.906C21.4924 122.793 22.3485 123.478 23.4773 123.963C24.6061 124.455 25.9924 124.702 27.6364 124.702ZM39.2727 147.71L39.2727 152.631L24.1591 152.631C22.4621 152.631 20.9773 152.225 19.7045 151.415C18.4318 150.612 17.4394 149.487 16.7273 148.04C16.0227 146.593 15.6704 144.907 15.6704 142.983C15.6704 141.051 16.0227 139.362 16.7273 137.915C17.4394 136.468 18.4318 135.343 19.7045 134.54C20.9773 133.737 22.4621 133.335 24.1591 133.335L39.2727 133.335L39.2727 138.256L24.5795 138.256C23.6932 138.256 22.9053 138.449 22.2159 138.835C21.5265 139.229 20.9848 139.782 20.5909 140.494C20.197 141.206 20 142.036 20 142.983C20 143.937 20.197 144.767 20.5909 145.472C20.9848 146.184 21.5265 146.733 22.2159 147.119C22.9053 147.513 23.6932 147.71 24.5795 147.71L39.2727 147.71ZM39.2727 176.145L16 176.145L16 171.895L30.6477 161.77L30.6477 161.599L16 161.599L16 156.679L39.2727 156.679L39.2727 160.997L24.6364 171.043L24.6364 171.247L39.2727 171.247L39.2727 176.145ZM35.2159 179.324L39.2727 179.324L39.2727 198.437L35.2159 198.437L35.2159 191.312L16 191.312L16 186.449L35.2159 186.449L35.2159 179.324Z" fill="white"/>
</g>
<defs>
<filter id="filter0_d_25_5" x="103" y="8" width="12" height="225" filterUnits="userSpaceOnUse" color-interpolation-filters="sRGB">
<feFlood flood-opacity="0" result="BackgroundImageFix"/>
<feColorMatrix in="SourceAlpha" type="matrix" values="0 0 0 0 0 0 0 0 0 0 0 0 0 0 0 0 0 0 127 0" result="hardAlpha"/>
<feOffset dy="4"/>
<feGaussianBlur stdDeviation="2"/>
<feComposite in2="hardAlpha" operator="out"/>
<feColorMatrix type="matrix" values="0 0 0 0 0 0 0 0 0 0 0 0 0 0 0 0 0 0 0.25 0"/>
<feBlend mode="normal" in2="BackgroundImageFix" result="effect1_dropShadow_25_5"/>
<feBlend mode="normal" in="SourceGraphic" in2="effect1_dropShadow_25_5" result="shape"/>
</filter>
<filter id="filter1_d_25_5" x="0" y="0" width="111" height="242" filterUnits="userSpaceOnUse" color-interpolation-filters="sRGB">
<feFlood flood-opacity="0" result="BackgroundImageFix"/>
<feColorMatrix in="SourceAlpha" type="matrix" values="0 0 0 0 0 0 0 0 0 0 0 0 0 0 0 0 0 0 127 0" result="hardAlpha"/>
<feOffset dy="4"/>
<feGaussianBlur stdDeviation="2"/>
<feComposite in2="hardAlpha" operator="out"/>
<feColorMatrix type="matrix" values="0 0 0 0 0 0 0 0 0 0 0 0 0 0 0 0 0 0 0.25 0"/>
<feBlend mode="normal" in2="BackgroundImageFix" result="effect1_dropShadow_25_5"/>
<feBlend mode="normal" in="SourceGraphic" in2="effect1_dropShadow_25_5" result="shape"/>
</filter>
<filter id="filter2_d_25_5" x="50" y="23" width="48" height="190.191" filterUnits="userSpaceOnUse" color-interpolation-filters="sRGB">
<feFlood flood-opacity="0" result="BackgroundImageFix"/>
<feColorMatrix in="SourceAlpha" type="matrix" values="0 0 0 0 0 0 0 0 0 0 0 0 0 0 0 0 0 0 127 0" result="hardAlpha"/>
<feOffset dx="4" dy="8"/>
<feGaussianBlur stdDeviation="2"/>
<feComposite in2="hardAlpha" operator="out"/>
<feColorMatrix type="matrix" values="0 0 0 0 0 0 0 0 0 0 0 0 0 0 0 0 0 0 0.25 0"/>
<feBlend mode="normal" in2="BackgroundImageFix" result="effect1_dropShadow_25_5"/>
<feBlend mode="normal" in="SourceGraphic" in2="effect1_dropShadow_25_5" result="shape"/>
</filter>
<filter id="filter3_d_25_5" x="15.6705" y="31.0227" width="31.9204" height="179.415" filterUnits="userSpaceOnUse" color-interpolation-filters="sRGB">
<feFlood flood-opacity="0" result="BackgroundImageFix"/>
<feColorMatrix in="SourceAlpha" type="matrix" values="0 0 0 0 0 0 0 0 0 0 0 0 0 0 0 0 0 0 127 0" result="hardAlpha"/>
<feOffset dx="4" dy="8"/>
<feGaussianBlur stdDeviation="2"/>
<feComposite in2="hardAlpha" operator="out"/>
<feColorMatrix type="matrix" values="0 0 0 0 0 0 0 0 0 0 0 0 0 0 0 0 0 0 0.25 0"/>
<feBlend mode="normal" in2="BackgroundImageFix" result="effect1_dropShadow_25_5"/>
<feBlend mode="normal" in="SourceGraphic" in2="effect1_dropShadow_25_5" result="shape"/>
</filter>
</defs>
</svg>
