<svg width="26" height="18" viewBox="0 0 26 18" fill="none" xmlns="http://www.w3.org/2000/svg">
<path d="M25.2127 2L18 9.21262L25.0347 16.2525C25.2477 15.8863 25.3788 15.4666 25.3788 15.0133V2.87144C25.3788 2.56372 25.3154 2.27212 25.2127 2Z" fill="white"/>
<path d="M22.9035 0H2.48353C2.07065 0 1.68692 0.11087 1.34399 0.289917L12.1858 11.1316C12.5003 11.4461 13.0467 11.4461 13.3557 11.1316L24.1465 0.346096C23.7795 0.131745 23.3584 0 22.9035 0Z" fill="white"/>
<path d="M0.208302 1.4942C0.0757146 1.79775 0 2.13155 0 2.4835V14.6254C0 15.0715 0.127579 15.4845 0.334344 15.8467L7.44502 8.73092L0.208302 1.4942Z" fill="white"/>
<path d="M16.8326 10.0002L14.5312 12.3071C13.5646 13.2629 11.9983 13.2785 11.0157 12.3071L8.6205 9.90643L1.58698 16.935C1.86588 17.0436 2.16661 17.1088 2.4835 17.1088H22.9034C23.2126 17.1088 23.5057 17.0452 23.7789 16.9414L16.8326 10.0002Z" fill="white"/>
</svg>
